<mxfile host="www.draw.io" modified="2020-02-02T10:34:40.386Z" agent="Mozilla/5.0 (Macintosh; Intel Mac OS X 10_15_2) AppleWebKit/537.36 (KHTML, like Gecko) Chrome/79.0.3945.130 Safari/537.36" etag="4m0mjn0XZMYuvNoVFDIz" version="12.6.2" type="github">
  <diagram id="HK4gfcxCD-YEJS2W7qcR" name="Page-1">
    <mxGraphModel dx="1722" dy="962" grid="1" gridSize="10" guides="1" tooltips="1" connect="1" arrows="1" fold="1" page="1" pageScale="1" pageWidth="4681" pageHeight="3300" math="0" shadow="0">
      <root>
        <mxCell id="0"/>
        <mxCell id="1" parent="0"/>
        <mxCell id="Z7IGgQ3KT0FXclz7BYhR-1" value="null" style="rounded=0;whiteSpace=wrap;html=1;fillColor=#ffe6cc;strokeColor=#d79b00;" vertex="1" parent="1">
          <mxGeometry x="120" y="120" width="40" height="40" as="geometry"/>
        </mxCell>
        <mxCell id="Z7IGgQ3KT0FXclz7BYhR-2" value="0" style="rounded=0;whiteSpace=wrap;html=1;fillColor=#ffe6cc;strokeColor=#d79b00;" vertex="1" parent="1">
          <mxGeometry x="160" y="120" width="40" height="40" as="geometry"/>
        </mxCell>
        <mxCell id="Z7IGgQ3KT0FXclz7BYhR-3" value="node1" style="rounded=0;whiteSpace=wrap;html=1;fillColor=#ffe6cc;strokeColor=#d79b00;" vertex="1" parent="1">
          <mxGeometry x="200" y="120" width="40" height="40" as="geometry"/>
        </mxCell>
        <mxCell id="Z7IGgQ3KT0FXclz7BYhR-6" value="node0" style="rounded=0;whiteSpace=wrap;html=1;fillColor=#ffe6cc;strokeColor=#d79b00;" vertex="1" parent="1">
          <mxGeometry x="320" y="120" width="40" height="40" as="geometry"/>
        </mxCell>
        <mxCell id="Z7IGgQ3KT0FXclz7BYhR-7" value="1" style="rounded=0;whiteSpace=wrap;html=1;fillColor=#ffe6cc;strokeColor=#d79b00;" vertex="1" parent="1">
          <mxGeometry x="360" y="120" width="40" height="40" as="geometry"/>
        </mxCell>
        <mxCell id="Z7IGgQ3KT0FXclz7BYhR-8" value="null" style="rounded=0;whiteSpace=wrap;html=1;fillColor=#ffe6cc;strokeColor=#d79b00;" vertex="1" parent="1">
          <mxGeometry x="400" y="120" width="40" height="40" as="geometry"/>
        </mxCell>
        <mxCell id="Z7IGgQ3KT0FXclz7BYhR-9" value="node0" style="text;html=1;align=center;verticalAlign=middle;resizable=0;points=[];autosize=1;" vertex="1" parent="1">
          <mxGeometry x="155" y="100" width="50" height="20" as="geometry"/>
        </mxCell>
        <mxCell id="Z7IGgQ3KT0FXclz7BYhR-10" value="node1" style="text;html=1;align=center;verticalAlign=middle;resizable=0;points=[];autosize=1;" vertex="1" parent="1">
          <mxGeometry x="355" y="100" width="50" height="20" as="geometry"/>
        </mxCell>
        <mxCell id="Z7IGgQ3KT0FXclz7BYhR-11" value="first" style="text;html=1;align=center;verticalAlign=middle;resizable=0;points=[];autosize=1;" vertex="1" parent="1">
          <mxGeometry x="165" y="190" width="30" height="20" as="geometry"/>
        </mxCell>
        <mxCell id="Z7IGgQ3KT0FXclz7BYhR-12" value="last" style="text;html=1;align=center;verticalAlign=middle;resizable=0;points=[];autosize=1;" vertex="1" parent="1">
          <mxGeometry x="365" y="190" width="30" height="20" as="geometry"/>
        </mxCell>
        <mxCell id="Z7IGgQ3KT0FXclz7BYhR-13" value="" style="endArrow=classic;startArrow=classic;html=1;entryX=0;entryY=0.5;entryDx=0;entryDy=0;exitX=1;exitY=0.5;exitDx=0;exitDy=0;" edge="1" parent="1" source="Z7IGgQ3KT0FXclz7BYhR-3" target="Z7IGgQ3KT0FXclz7BYhR-6">
          <mxGeometry width="50" height="50" relative="1" as="geometry">
            <mxPoint x="120" y="290" as="sourcePoint"/>
            <mxPoint x="170" y="240" as="targetPoint"/>
          </mxGeometry>
        </mxCell>
        <mxCell id="Z7IGgQ3KT0FXclz7BYhR-15" value="" style="endArrow=classic;html=1;entryX=0.5;entryY=1;entryDx=0;entryDy=0;" edge="1" parent="1" source="Z7IGgQ3KT0FXclz7BYhR-11" target="Z7IGgQ3KT0FXclz7BYhR-2">
          <mxGeometry width="50" height="50" relative="1" as="geometry">
            <mxPoint x="120" y="280" as="sourcePoint"/>
            <mxPoint x="170" y="230" as="targetPoint"/>
          </mxGeometry>
        </mxCell>
        <mxCell id="Z7IGgQ3KT0FXclz7BYhR-16" value="" style="endArrow=classic;html=1;entryX=0.5;entryY=1;entryDx=0;entryDy=0;exitX=0.5;exitY=-0.05;exitDx=0;exitDy=0;exitPerimeter=0;" edge="1" parent="1" source="Z7IGgQ3KT0FXclz7BYhR-12" target="Z7IGgQ3KT0FXclz7BYhR-7">
          <mxGeometry width="50" height="50" relative="1" as="geometry">
            <mxPoint x="190" y="200" as="sourcePoint"/>
            <mxPoint x="190" y="170" as="targetPoint"/>
          </mxGeometry>
        </mxCell>
        <mxCell id="Z7IGgQ3KT0FXclz7BYhR-17" value="null" style="rounded=0;whiteSpace=wrap;html=1;fillColor=#ffe6cc;strokeColor=#d79b00;" vertex="1" parent="1">
          <mxGeometry x="120" y="280" width="40" height="40" as="geometry"/>
        </mxCell>
        <mxCell id="Z7IGgQ3KT0FXclz7BYhR-18" value="0" style="rounded=0;whiteSpace=wrap;html=1;fillColor=#ffe6cc;strokeColor=#d79b00;" vertex="1" parent="1">
          <mxGeometry x="160" y="280" width="40" height="40" as="geometry"/>
        </mxCell>
        <mxCell id="Z7IGgQ3KT0FXclz7BYhR-19" value="node2" style="rounded=0;whiteSpace=wrap;html=1;fillColor=#e1d5e7;strokeColor=#9673a6;" vertex="1" parent="1">
          <mxGeometry x="200" y="280" width="40" height="40" as="geometry"/>
        </mxCell>
        <mxCell id="Z7IGgQ3KT0FXclz7BYhR-20" value="node2" style="rounded=0;whiteSpace=wrap;html=1;fillColor=#e1d5e7;strokeColor=#9673a6;" vertex="1" parent="1">
          <mxGeometry x="360" y="280" width="40" height="40" as="geometry"/>
        </mxCell>
        <mxCell id="Z7IGgQ3KT0FXclz7BYhR-21" value="1" style="rounded=0;whiteSpace=wrap;html=1;fillColor=#ffe6cc;strokeColor=#d79b00;" vertex="1" parent="1">
          <mxGeometry x="400" y="280" width="40" height="40" as="geometry"/>
        </mxCell>
        <mxCell id="Z7IGgQ3KT0FXclz7BYhR-22" value="null" style="rounded=0;whiteSpace=wrap;html=1;fillColor=#ffe6cc;strokeColor=#d79b00;" vertex="1" parent="1">
          <mxGeometry x="440" y="280" width="40" height="40" as="geometry"/>
        </mxCell>
        <mxCell id="Z7IGgQ3KT0FXclz7BYhR-23" value="node0" style="text;html=1;align=center;verticalAlign=middle;resizable=0;points=[];autosize=1;" vertex="1" parent="1">
          <mxGeometry x="155" y="260" width="50" height="20" as="geometry"/>
        </mxCell>
        <mxCell id="Z7IGgQ3KT0FXclz7BYhR-24" value="node1" style="text;html=1;align=center;verticalAlign=middle;resizable=0;points=[];autosize=1;" vertex="1" parent="1">
          <mxGeometry x="395" y="260" width="50" height="20" as="geometry"/>
        </mxCell>
        <mxCell id="Z7IGgQ3KT0FXclz7BYhR-25" value="first" style="text;html=1;align=center;verticalAlign=middle;resizable=0;points=[];autosize=1;" vertex="1" parent="1">
          <mxGeometry x="165" y="350" width="30" height="20" as="geometry"/>
        </mxCell>
        <mxCell id="Z7IGgQ3KT0FXclz7BYhR-26" value="last" style="text;html=1;align=center;verticalAlign=middle;resizable=0;points=[];autosize=1;" vertex="1" parent="1">
          <mxGeometry x="405" y="350" width="30" height="20" as="geometry"/>
        </mxCell>
        <mxCell id="Z7IGgQ3KT0FXclz7BYhR-27" value="" style="endArrow=classic;startArrow=classic;html=1;entryX=0;entryY=0.5;entryDx=0;entryDy=0;exitX=1;exitY=0.5;exitDx=0;exitDy=0;" edge="1" parent="1" source="Z7IGgQ3KT0FXclz7BYhR-19" target="Z7IGgQ3KT0FXclz7BYhR-20">
          <mxGeometry width="50" height="50" relative="1" as="geometry">
            <mxPoint x="120" y="450" as="sourcePoint"/>
            <mxPoint x="170" y="400" as="targetPoint"/>
          </mxGeometry>
        </mxCell>
        <mxCell id="Z7IGgQ3KT0FXclz7BYhR-28" value="" style="endArrow=classic;html=1;entryX=0.5;entryY=1;entryDx=0;entryDy=0;" edge="1" parent="1" source="Z7IGgQ3KT0FXclz7BYhR-25" target="Z7IGgQ3KT0FXclz7BYhR-18">
          <mxGeometry width="50" height="50" relative="1" as="geometry">
            <mxPoint x="120" y="440" as="sourcePoint"/>
            <mxPoint x="170" y="390" as="targetPoint"/>
          </mxGeometry>
        </mxCell>
        <mxCell id="Z7IGgQ3KT0FXclz7BYhR-29" value="" style="endArrow=classic;html=1;entryX=0.5;entryY=1;entryDx=0;entryDy=0;exitX=0.5;exitY=-0.05;exitDx=0;exitDy=0;exitPerimeter=0;" edge="1" parent="1" source="Z7IGgQ3KT0FXclz7BYhR-26" target="Z7IGgQ3KT0FXclz7BYhR-21">
          <mxGeometry width="50" height="50" relative="1" as="geometry">
            <mxPoint x="230" y="360" as="sourcePoint"/>
            <mxPoint x="230" y="330" as="targetPoint"/>
          </mxGeometry>
        </mxCell>
        <mxCell id="Z7IGgQ3KT0FXclz7BYhR-30" value="node0" style="rounded=0;whiteSpace=wrap;html=1;fillColor=#e1d5e7;strokeColor=#9673a6;" vertex="1" parent="1">
          <mxGeometry x="240" y="440" width="40" height="40" as="geometry"/>
        </mxCell>
        <mxCell id="Z7IGgQ3KT0FXclz7BYhR-31" value="1" style="rounded=0;whiteSpace=wrap;html=1;fillColor=#e1d5e7;strokeColor=#9673a6;" vertex="1" parent="1">
          <mxGeometry x="280" y="440" width="40" height="40" as="geometry"/>
        </mxCell>
        <mxCell id="Z7IGgQ3KT0FXclz7BYhR-32" value="node1" style="rounded=0;whiteSpace=wrap;html=1;fillColor=#e1d5e7;strokeColor=#9673a6;" vertex="1" parent="1">
          <mxGeometry x="320" y="440" width="40" height="40" as="geometry"/>
        </mxCell>
        <mxCell id="Z7IGgQ3KT0FXclz7BYhR-33" value="node2" style="text;html=1;align=center;verticalAlign=middle;resizable=0;points=[];autosize=1;" vertex="1" parent="1">
          <mxGeometry x="275" y="420" width="50" height="20" as="geometry"/>
        </mxCell>
        <mxCell id="Z7IGgQ3KT0FXclz7BYhR-36" value="" style="verticalLabelPosition=bottom;verticalAlign=top;html=1;shape=mxgraph.basic.x;fillColor=#FF3333;strokeColor=#d6b656;" vertex="1" parent="1">
          <mxGeometry x="290" y="290" width="20" height="20" as="geometry"/>
        </mxCell>
        <mxCell id="Z7IGgQ3KT0FXclz7BYhR-37" value="" style="endArrow=classic;startArrow=classic;html=1;entryX=0;entryY=1;entryDx=0;entryDy=0;exitX=0.068;exitY=1.071;exitDx=0;exitDy=0;exitPerimeter=0;" edge="1" parent="1" source="Z7IGgQ3KT0FXclz7BYhR-33" target="Z7IGgQ3KT0FXclz7BYhR-19">
          <mxGeometry width="50" height="50" relative="1" as="geometry">
            <mxPoint x="120" y="550" as="sourcePoint"/>
            <mxPoint x="170" y="500" as="targetPoint"/>
          </mxGeometry>
        </mxCell>
        <mxCell id="Z7IGgQ3KT0FXclz7BYhR-38" value="" style="endArrow=classic;startArrow=classic;html=1;entryX=1;entryY=1;entryDx=0;entryDy=0;exitX=1;exitY=0;exitDx=0;exitDy=0;" edge="1" parent="1" source="Z7IGgQ3KT0FXclz7BYhR-31" target="Z7IGgQ3KT0FXclz7BYhR-20">
          <mxGeometry width="50" height="50" relative="1" as="geometry">
            <mxPoint x="288.39999999999986" y="451.41999999999996" as="sourcePoint"/>
            <mxPoint x="210" y="330" as="targetPoint"/>
          </mxGeometry>
        </mxCell>
        <mxCell id="Z7IGgQ3KT0FXclz7BYhR-41" value="add(1, node2)" style="text;html=1;align=center;verticalAlign=middle;resizable=0;points=[];autosize=1;" vertex="1" parent="1">
          <mxGeometry x="256" y="360" width="90" height="20" as="geometry"/>
        </mxCell>
      </root>
    </mxGraphModel>
  </diagram>
</mxfile>
